<svg width="412" height="51" viewBox="0 0 412 51" fill="none" xmlns="http://www.w3.org/2000/svg">
<path d="M16.7019 15.1315C16.7019 15.11 16.7017 15.0889 16.7013 15.0682C16.6884 14.4608 16.7023 14.0545 16.7213 13.8442C16.7619 13.3951 16.8256 13.8402 16.7019 15.1315Z" fill="black"/>
<path d="M16.7019 15.1315C16.7019 4.70851 20.3047 1.80473 26.1433 1.80473C32.187 1.80473 34.0999 10.6989 32.9561 21.8005C32.7979 23.3365 31.6375 24.5678 30.1263 24.8855V24.8855C29.7296 24.9689 29.324 25.0109 28.9186 25.0109C26.8056 25.0109 25.1493 25.0109 23.4193 25.0109C20.6111 25.0109 18.0991 26.7578 17.1218 29.3905V29.3905C16.8441 30.1386 16.702 30.9302 16.702 31.7282L16.7022 40.4988C16.7022 41.0024 16.7548 41.5046 16.8592 41.9973V41.9973C17.0863 43.0694 17.5541 44.0758 18.2273 44.9406L18.599 45.418C19.3316 46.3591 20.2292 47.1592 21.2482 47.7791L21.6559 48.0272C23.8726 49.3758 26.5711 49.6785 29.0315 48.8546V48.8546C32.6225 47.6521 35.0429 44.2889 35.0429 40.5019V34.812H25.6536H37.5978C39.155 34.812 40.6898 34.4412 42.0752 33.7303V33.7303C44.7591 32.353 46.6598 29.8171 47.2286 26.8546L47.2733 26.6221C47.4778 25.557 47.4859 24.4634 47.2972 23.3953V23.3953C46.704 20.0386 44.2455 17.3156 40.9666 16.3837L38.3771 15.6477M16.7019 15.1315V15.1315C16.8836 13.2354 16.661 13.1639 16.7013 15.0682C16.7017 15.0889 16.7019 15.11 16.7019 15.1315ZM25.1515 15.6477H11.2371C8.07887 15.6477 5.13834 17.2571 3.43601 19.9173V19.9173C2.48228 21.4076 1.97542 23.14 1.97542 24.9094V25.6479C1.97542 27.1561 2.37265 28.6376 3.12714 29.9435V29.9435C4.37385 32.1012 6.49653 33.6109 8.94394 34.0804L12.7574 34.812" stroke="black" stroke-width="2"/>
<path d="M29.6987 37.7131C28.8344 38.2168 28.4932 39.2418 28.9366 40.0026C29.3599 40.7289 30.3453 40.9517 31.1857 40.5321C31.266 40.4921 31.3392 40.4396 31.4087 40.3829L31.451 40.3485C31.6219 40.2092 31.7595 40.0335 31.8537 39.8342V39.8342C32.0692 39.3786 32.0386 38.8439 31.7457 38.4339C31.5212 38.1196 31.3267 37.8623 31.3043 37.8179" stroke="black"/>
<path d="M22.5271 9.7456C21.626 9.31116 20.5855 9.60197 20.2031 10.3951C19.838 11.1524 20.2047 12.0937 21.0228 12.5555C21.1008 12.5996 21.1854 12.6309 21.2712 12.6568L21.3234 12.6726C21.5345 12.7363 21.7571 12.752 21.9749 12.7186V12.7186C22.4731 12.6422 22.8991 12.3177 23.0751 11.8454C23.2099 11.4836 23.3144 11.1784 23.3386 11.135" stroke="black"/>
<path d="M55.1628 33.7216V16.9216H61.7148C63.1868 16.9216 64.4428 17.1536 65.4828 17.6176C66.5228 18.0816 67.3228 18.7536 67.8828 19.6336C68.4428 20.5136 68.7228 21.5616 68.7228 22.7776C68.7228 23.9936 68.4428 25.0416 67.8828 25.9216C67.3228 26.7856 66.5228 27.4576 65.4828 27.9376C64.4428 28.4016 63.1868 28.6336 61.7148 28.6336H56.4828L57.5628 27.5056V33.7216H55.1628ZM57.5628 27.7456L56.4828 26.5456H61.6428C63.1788 26.5456 64.3388 26.2176 65.1228 25.5616C65.9228 24.9056 66.3228 23.9776 66.3228 22.7776C66.3228 21.5776 65.9228 20.6496 65.1228 19.9936C64.3388 19.3376 63.1788 19.0096 61.6428 19.0096H56.4828L57.5628 17.8096V27.7456ZM72.2488 33.7216V16.9216H78.8008C80.2728 16.9216 81.5288 17.1536 82.5688 17.6176C83.6088 18.0816 84.4088 18.7536 84.9688 19.6336C85.5288 20.5136 85.8088 21.5616 85.8088 22.7776C85.8088 23.9936 85.5288 25.0416 84.9688 25.9216C84.4088 26.7856 83.6088 27.4496 82.5688 27.9136C81.5288 28.3776 80.2728 28.6096 78.8008 28.6096H73.5688L74.6488 27.5056V33.7216H72.2488ZM83.4808 33.7216L79.2088 27.6256H81.7768L86.0968 33.7216H83.4808ZM74.6488 27.7456L73.5688 26.5696H78.7288C80.2648 26.5696 81.4248 26.2416 82.2088 25.5856C83.0088 24.9136 83.4088 23.9776 83.4088 22.7776C83.4088 21.5776 83.0088 20.6496 82.2088 19.9936C81.4248 19.3376 80.2648 19.0096 78.7288 19.0096H73.5688L74.6488 17.8096V27.7456ZM97.2703 33.9136C95.9903 33.9136 94.7983 33.6976 93.6943 33.2656C92.6063 32.8336 91.6623 32.2336 90.8623 31.4656C90.0623 30.6816 89.4383 29.7696 88.9903 28.7296C88.5423 27.6896 88.3183 26.5536 88.3183 25.3216C88.3183 24.0896 88.5423 22.9536 88.9903 21.9136C89.4383 20.8736 90.0623 19.9696 90.8623 19.2016C91.6623 18.4176 92.6063 17.8096 93.6943 17.3776C94.7823 16.9456 95.9743 16.7296 97.2703 16.7296C98.5503 16.7296 99.7263 16.9456 100.798 17.3776C101.886 17.7936 102.83 18.3936 103.63 19.1776C104.446 19.9456 105.07 20.8496 105.502 21.8896C105.95 22.9296 106.174 24.0736 106.174 25.3216C106.174 26.5696 105.95 27.7136 105.502 28.7536C105.07 29.7936 104.446 30.7056 103.63 31.4896C102.83 32.2576 101.886 32.8576 100.798 33.2896C99.7263 33.7056 98.5503 33.9136 97.2703 33.9136ZM97.2703 31.7776C98.1983 31.7776 99.0543 31.6176 99.8383 31.2976C100.638 30.9776 101.326 30.5296 101.902 29.9536C102.494 29.3616 102.95 28.6736 103.27 27.8896C103.606 27.1056 103.774 26.2496 103.774 25.3216C103.774 24.3936 103.606 23.5376 103.27 22.7536C102.95 21.9696 102.494 21.2896 101.902 20.7136C101.326 20.1216 100.638 19.6656 99.8383 19.3456C99.0543 19.0256 98.1983 18.8656 97.2703 18.8656C96.3263 18.8656 95.4543 19.0256 94.6543 19.3456C93.8703 19.6656 93.1823 20.1216 92.5903 20.7136C91.9983 21.2896 91.5343 21.9696 91.1983 22.7536C90.8783 23.5376 90.7183 24.3936 90.7183 25.3216C90.7183 26.2496 90.8783 27.1056 91.1983 27.8896C91.5343 28.6736 91.9983 29.3616 92.5903 29.9536C93.1823 30.5296 93.8703 30.9776 94.6543 31.2976C95.4543 31.6176 96.3263 31.7776 97.2703 31.7776ZM117.427 33.9136C116.131 33.9136 114.939 33.7056 113.851 33.2896C112.763 32.8576 111.819 32.2576 111.019 31.4896C110.219 30.7056 109.595 29.7936 109.147 28.7536C108.699 27.7136 108.475 26.5696 108.475 25.3216C108.475 24.0736 108.699 22.9296 109.147 21.8896C109.595 20.8496 110.219 19.9456 111.019 19.1776C111.835 18.3936 112.787 17.7936 113.875 17.3776C114.963 16.9456 116.163 16.7296 117.475 16.7296C118.803 16.7296 120.019 16.9456 121.123 17.3776C122.227 17.8096 123.163 18.4576 123.931 19.3216L122.443 20.8096C121.755 20.1376 121.003 19.6496 120.187 19.3456C119.387 19.0256 118.515 18.8656 117.571 18.8656C116.611 18.8656 115.715 19.0256 114.883 19.3456C114.067 19.6656 113.355 20.1136 112.747 20.6896C112.155 21.2656 111.691 21.9536 111.355 22.7536C111.035 23.5376 110.875 24.3936 110.875 25.3216C110.875 26.2336 111.035 27.0896 111.355 27.8896C111.691 28.6736 112.155 29.3616 112.747 29.9536C113.355 30.5296 114.067 30.9776 114.883 31.2976C115.699 31.6176 116.587 31.7776 117.547 31.7776C118.443 31.7776 119.299 31.6416 120.115 31.3696C120.947 31.0816 121.715 30.6096 122.419 29.9536L123.787 31.7776C122.955 32.4816 121.979 33.0176 120.859 33.3856C119.755 33.7376 118.611 33.9136 117.427 33.9136ZM121.483 31.4656V25.2256H123.787V31.7776L121.483 31.4656ZM128.382 33.7216V16.9216H134.934C136.406 16.9216 137.662 17.1536 138.702 17.6176C139.742 18.0816 140.542 18.7536 141.102 19.6336C141.662 20.5136 141.942 21.5616 141.942 22.7776C141.942 23.9936 141.662 25.0416 141.102 25.9216C140.542 26.7856 139.742 27.4496 138.702 27.9136C137.662 28.3776 136.406 28.6096 134.934 28.6096H129.702L130.782 27.5056V33.7216H128.382ZM139.614 33.7216L135.342 27.6256H137.91L142.23 33.7216H139.614ZM130.782 27.7456L129.702 26.5696H134.862C136.398 26.5696 137.558 26.2416 138.342 25.5856C139.142 24.9136 139.542 23.9776 139.542 22.7776C139.542 21.5776 139.142 20.6496 138.342 19.9936C137.558 19.3376 136.398 19.0096 134.862 19.0096H129.702L130.782 17.8096V27.7456ZM143.275 33.7216L150.883 16.9216H153.259L160.891 33.7216H158.371L151.579 18.2656H152.539L145.747 33.7216H143.275ZM146.515 29.5216L147.163 27.6016H156.619L157.315 29.5216H146.515ZM163.397 33.7216V16.9216H165.365L172.901 29.6176H171.845L179.285 16.9216H181.253L181.277 33.7216H178.973L178.949 20.5456H179.501L172.877 31.6816H171.773L165.101 20.5456H165.701V33.7216H163.397ZM186.319 33.7216V16.9216H188.287L195.823 29.6176H194.767L202.207 16.9216H204.175L204.199 33.7216H201.895L201.871 20.5456H202.423L195.799 31.6816H194.695L188.023 20.5456H188.623V33.7216H186.319ZM211.425 24.1696H220.065V26.2096H211.425V24.1696ZM211.641 31.6336H221.433V33.7216H209.241V16.9216H221.097V19.0096H211.641V31.6336ZM225.319 33.7216V16.9216H231.871C233.343 16.9216 234.599 17.1536 235.639 17.6176C236.679 18.0816 237.479 18.7536 238.039 19.6336C238.599 20.5136 238.879 21.5616 238.879 22.7776C238.879 23.9936 238.599 25.0416 238.039 25.9216C237.479 26.7856 236.679 27.4496 235.639 27.9136C234.599 28.3776 233.343 28.6096 231.871 28.6096H226.639L227.719 27.5056V33.7216H225.319ZM236.551 33.7216L232.279 27.6256H234.847L239.167 33.7216H236.551ZM227.719 27.7456L226.639 26.5696H231.799C233.335 26.5696 234.495 26.2416 235.279 25.5856C236.079 24.9136 236.479 23.9776 236.479 22.7776C236.479 21.5776 236.079 20.6496 235.279 19.9936C234.495 19.3376 233.335 19.0096 231.799 19.0096H226.639L227.719 17.8096V27.7456ZM242.757 33.7216V16.9216H245.157V33.7216H242.757ZM250.186 33.7216V16.9216H252.154L263.266 30.7216H262.234V16.9216H264.634V33.7216H262.666L251.554 19.9216H252.586V33.7216H250.186ZM277.247 33.9136C275.951 33.9136 274.759 33.7056 273.671 33.2896C272.583 32.8576 271.639 32.2576 270.839 31.4896C270.039 30.7056 269.415 29.7936 268.967 28.7536C268.519 27.7136 268.295 26.5696 268.295 25.3216C268.295 24.0736 268.519 22.9296 268.967 21.8896C269.415 20.8496 270.039 19.9456 270.839 19.1776C271.655 18.3936 272.607 17.7936 273.695 17.3776C274.783 16.9456 275.983 16.7296 277.295 16.7296C278.623 16.7296 279.839 16.9456 280.943 17.3776C282.047 17.8096 282.983 18.4576 283.751 19.3216L282.263 20.8096C281.575 20.1376 280.823 19.6496 280.007 19.3456C279.207 19.0256 278.335 18.8656 277.391 18.8656C276.431 18.8656 275.535 19.0256 274.703 19.3456C273.887 19.6656 273.175 20.1136 272.567 20.6896C271.975 21.2656 271.511 21.9536 271.175 22.7536C270.855 23.5376 270.695 24.3936 270.695 25.3216C270.695 26.2336 270.855 27.0896 271.175 27.8896C271.511 28.6736 271.975 29.3616 272.567 29.9536C273.175 30.5296 273.887 30.9776 274.703 31.2976C275.519 31.6176 276.407 31.7776 277.367 31.7776C278.263 31.7776 279.119 31.6416 279.935 31.3696C280.767 31.0816 281.535 30.6096 282.239 29.9536L283.607 31.7776C282.775 32.4816 281.799 33.0176 280.679 33.3856C279.575 33.7376 278.431 33.9136 277.247 33.9136ZM281.303 31.4656V25.2256H283.607V31.7776L281.303 31.4656ZM294.647 33.7216V16.9216H297.047V33.7216H294.647ZM308.522 33.7216V16.9216H315.074C316.546 16.9216 317.802 17.1536 318.842 17.6176C319.882 18.0816 320.682 18.7536 321.242 19.6336C321.802 20.5136 322.082 21.5616 322.082 22.7776C322.082 23.9936 321.802 25.0416 321.242 25.9216C320.682 26.7856 319.882 27.4576 318.842 27.9376C317.802 28.4016 316.546 28.6336 315.074 28.6336H309.842L310.922 27.5056V33.7216H308.522ZM310.922 27.7456L309.842 26.5456H315.002C316.538 26.5456 317.698 26.2176 318.482 25.5616C319.282 24.9056 319.682 23.9776 319.682 22.7776C319.682 21.5776 319.282 20.6496 318.482 19.9936C317.698 19.3376 316.538 19.0096 315.002 19.0096H309.842L310.922 17.8096V27.7456ZM329.664 33.7216V27.2896L330.216 28.7776L322.992 16.9216H325.56L331.632 26.9296H330.24L336.336 16.9216H338.712L331.512 28.7776L332.04 27.2896V33.7216H329.664ZM344.296 33.7216V19.0096H338.536V16.9216H352.432V19.0096H346.672V33.7216H344.296ZM367.094 16.9216H369.494V33.7216H367.094V16.9216ZM357.446 33.7216H355.046V16.9216H357.446V33.7216ZM367.31 26.2336H357.206V24.1456H367.31V26.2336ZM382.106 33.9136C380.826 33.9136 379.634 33.6976 378.53 33.2656C377.442 32.8336 376.498 32.2336 375.698 31.4656C374.898 30.6816 374.274 29.7696 373.826 28.7296C373.378 27.6896 373.154 26.5536 373.154 25.3216C373.154 24.0896 373.378 22.9536 373.826 21.9136C374.274 20.8736 374.898 19.9696 375.698 19.2016C376.498 18.4176 377.442 17.8096 378.53 17.3776C379.618 16.9456 380.81 16.7296 382.106 16.7296C383.386 16.7296 384.562 16.9456 385.634 17.3776C386.722 17.7936 387.666 18.3936 388.466 19.1776C389.282 19.9456 389.906 20.8496 390.338 21.8896C390.786 22.9296 391.01 24.0736 391.01 25.3216C391.01 26.5696 390.786 27.7136 390.338 28.7536C389.906 29.7936 389.282 30.7056 388.466 31.4896C387.666 32.2576 386.722 32.8576 385.634 33.2896C384.562 33.7056 383.386 33.9136 382.106 33.9136ZM382.106 31.7776C383.034 31.7776 383.89 31.6176 384.674 31.2976C385.474 30.9776 386.162 30.5296 386.738 29.9536C387.33 29.3616 387.786 28.6736 388.106 27.8896C388.442 27.1056 388.61 26.2496 388.61 25.3216C388.61 24.3936 388.442 23.5376 388.106 22.7536C387.786 21.9696 387.33 21.2896 386.738 20.7136C386.162 20.1216 385.474 19.6656 384.674 19.3456C383.89 19.0256 383.034 18.8656 382.106 18.8656C381.162 18.8656 380.29 19.0256 379.49 19.3456C378.706 19.6656 378.018 20.1216 377.426 20.7136C376.834 21.2896 376.37 21.9696 376.034 22.7536C375.714 23.5376 375.554 24.3936 375.554 25.3216C375.554 26.2496 375.714 27.1056 376.034 27.8896C376.37 28.6736 376.834 29.3616 377.426 29.9536C378.018 30.5296 378.706 30.9776 379.49 31.2976C380.29 31.6176 381.162 31.7776 382.106 31.7776ZM394.678 33.7216V16.9216H396.646L407.758 30.7216H406.726V16.9216H409.126V33.7216H407.158L396.046 19.9216H397.078V33.7216H394.678Z" fill="black"/>
</svg>
